<svg xmlns="http://www.w3.org/2000/svg" viewBox="0 0 40 40"><defs><style>.cls-1{fill:#fff;}.cls-2{fill:#0170fe;}</style></defs><g id="Layer_2" data-name="Layer 2"><g id="Layer_1-2" data-name="Layer 1"><rect class="cls-1" x="4.81" y="5.23" width="30" height="30" rx="15"/><path class="cls-2" d="M20,0A20,20,0,1,0,40,20,20,20,0,0,0,20,0Zm9.12,16.47a1.79,1.79,0,0,1,.65,1.4,2.64,2.64,0,0,1-2.58,2.75,2.5,2.5,0,0,1-1.62-.6l-2.76-2.34V28.14a1.81,1.81,0,0,1-.69,1.45,2.57,2.57,0,0,1-4.31-1.84V17.68l-3.07,2.6a1.83,1.83,0,0,1-1.55.42,2.57,2.57,0,0,1-1.38-4.49l6.88-5.84a2.49,2.49,0,0,1,3.24,0Z"/></g></g></svg>