<svg xmlns="http://www.w3.org/2000/svg" viewBox="0 0 464.14 67.05"><defs><style>.cls-1{fill:#fff;}</style></defs><g id="Layer_2" data-name="Layer 2"><g id="Layer_1-2" data-name="Layer 1"><path class="cls-1" d="M0,64.38q3.26-1.66,6.53-3.27L7.85,63.8Q4.6,65.41,1.36,67.05Z"/><path class="cls-1" d="M12.6,48.73q3.76-1.75,7.55-3.45a12.24,12.24,0,0,1,5.23-1.16,8.14,8.14,0,0,1,4.4,1.31A7.77,7.77,0,0,1,32.65,49a7.93,7.93,0,0,1,.59,4.55,8.23,8.23,0,0,1-2,4.06,12.06,12.06,0,0,1-4.24,3c-2.44,1.09-4.88,2.21-7.31,3.34Q16.15,56.34,12.6,48.73Zm12.92,9.06a6.23,6.23,0,0,0,3.32-3,5.31,5.31,0,0,0-3-7,6.37,6.37,0,0,0-4.54.47l-3.49,1.58,4.32,9.48Z"/><path class="cls-1" d="M32.3,40c1.3-.54,2.6-1.08,3.9-1.6L42.53,54l-3.77,1.55Q35.53,47.8,32.3,40Z"/><path class="cls-1" d="M47.94,51.56a10,10,0,0,1-3.44-.15l.21-3.23a10,10,0,0,0,3,.19,10.53,10.53,0,0,0,3.09-.69A5.29,5.29,0,0,0,53,46.31a1.5,1.5,0,0,0,.32-1.52,1.22,1.22,0,0,0-.82-.76,3.68,3.68,0,0,0-1.41-.14c-.54,0-1.26.11-2.15.25a29.88,29.88,0,0,1-3.44.36A5.4,5.4,0,0,1,42.91,44a3.79,3.79,0,0,1-1.86-2.15A4.35,4.35,0,0,1,40.86,39a5.66,5.66,0,0,1,1.7-2.7,11,11,0,0,1,3.68-2.17,14.45,14.45,0,0,1,3.32-.84,10,10,0,0,1,3.1,0c-.06,1.07-.13,2.14-.19,3.21a10.54,10.54,0,0,0-5.14.53,5,5,0,0,0-2.23,1.43,1.59,1.59,0,0,0-.27,1.6,1.36,1.36,0,0,0,1.36.85,16.74,16.74,0,0,0,3-.28,27.56,27.56,0,0,1,3.45-.34,5.66,5.66,0,0,1,2.6.58,3.72,3.72,0,0,1,1.79,2.18,4.49,4.49,0,0,1,.11,2.76,5.66,5.66,0,0,1-1.71,2.64,11,11,0,0,1-3.58,2.11A15.8,15.8,0,0,1,47.94,51.56Z"/><path class="cls-1" d="M64.44,44.79A8.7,8.7,0,0,1,60.18,43a8.21,8.21,0,0,1-2.71-3.79,8,8,0,0,1-.33-4.64,8.54,8.54,0,0,1,2.26-4.09,10.93,10.93,0,0,1,4.39-2.71,11.25,11.25,0,0,1,4.27-.63,8.45,8.45,0,0,1,3.71,1.1c-.61,1-1.21,2-1.81,3a5.83,5.83,0,0,0-4.91-.43,6.23,6.23,0,0,0-2.59,1.62A5,5,0,0,0,61.16,35,5.71,5.71,0,0,0,63,40.22a5,5,0,0,0,2.53,1.13,6.22,6.22,0,0,0,3-.3,5.79,5.79,0,0,0,3.57-3.31l3.21,1.37a8.36,8.36,0,0,1-2.26,3.1,11,11,0,0,1-3.66,2A10.65,10.65,0,0,1,64.44,44.79Z"/><path class="cls-1" d="M81.53,39.09a8.75,8.75,0,0,1-4.22-1.92,8.32,8.32,0,0,1-2.56-3.86,8.1,8.1,0,0,1-.16-4.62,8.58,8.58,0,0,1,2.42-4,11.66,11.66,0,0,1,9.67-2.93,8.7,8.7,0,0,1,4.24,2,8,8,0,0,1,2.44,3.93,8.28,8.28,0,0,1,0,4.63,8.93,8.93,0,0,1-2.44,3.94,11.49,11.49,0,0,1-9.39,2.84Zm6.56-5a5.08,5.08,0,0,0,1.36-2.39,5.74,5.74,0,0,0-1.56-5.34,5.09,5.09,0,0,0-2.47-1.27,6,6,0,0,0-2.94.17,5.93,5.93,0,0,0-2.55,1.5,5,5,0,0,0-1.35,2.41,5.36,5.36,0,0,0,.14,2.88,5.43,5.43,0,0,0,1.52,2.44,5.17,5.17,0,0,0,2.46,1.23,6.22,6.22,0,0,0,5.39-1.63Z"/><path class="cls-1" d="M110.29,14.58q-1.82,9.08-3.37,18.15l-3.86,1q-5.79-7.16-11.81-14.19,2.18-.61,4.35-1.2,4.22,5.07,8.32,10.2,1.11-6.5,2.36-13Z"/><path class="cls-1" d="M128.13,24.58c.22,1,.43,2,.64,3.05q-6.59,1.38-13.14,2.94-1.93-8.16-3.89-16.34,6.62-1.58,13.26-3c.21,1,.43,2,.64,3.05q-4.59,1-9.17,2c.27,1.19.54,2.37.82,3.56q4-.93,8-1.78l.63,3q-4,.84-8,1.76l.87,3.79Q123.48,25.56,128.13,24.58Z"/><path class="cls-1" d="M142.78,24.9c-1.38-1.33-2.76-2.67-4.16-4l-.19,0-3.47.67c.3,1.53.59,3.06.89,4.59l-3.94.79q-1.66-8.23-3.35-16.47c2.54-.51,5.09-1,7.63-1.49a10.4,10.4,0,0,1,4.2,0,5.93,5.93,0,0,1,3,1.61,5.5,5.5,0,0,1,1.48,3,5.57,5.57,0,0,1-.38,3.34,6,6,0,0,1-2.27,2.51c1.61,1.54,3.2,3.09,4.79,4.64Zm-3.32-12.48a4.45,4.45,0,0,0-2.91-.23l-3.3.63c.37,1.92.74,3.83,1.12,5.75l3.26-.63a4.34,4.34,0,0,0,2.61-1.26,2.59,2.59,0,0,0,.56-2.3A2.57,2.57,0,0,0,139.46,12.42Z"/><path class="cls-1" d="M167.61,17.43c-2.68.35-5.36.71-8,1.1-.34,1.26-.68,2.52-1,3.78l-4.06.62Q157,14,159.82,5.16l4.05-.55q5.07,7.8,9.89,15.7l-4.17.5ZM166,14.67q-1.78-3-3.63-6-1,3.39-1.88,6.76Q163.2,15,166,14.67Z"/><path class="cls-1" d="M207.82.68Q205.29,9.22,203,17.76q-2.14.12-4.29.27Q196.38,12.48,194,7q-1.59,5.82-3.08,11.65l-4.26.37q-3.59-8.11-7.37-16.17c1.43-.15,2.85-.29,4.28-.42q2.55,5.69,5,11.41,1.55-6.06,3.19-12.11l3.82-.29q2.46,5.81,4.82,11.61,1.67-6.06,3.42-12.12Z"/><path class="cls-1" d="M214.12,16.4a8.62,8.62,0,0,1-3.52-3A8.29,8.29,0,0,1,209.16,9a8.12,8.12,0,0,1,1.06-4.5,8.46,8.46,0,0,1,3.36-3.24,11.36,11.36,0,0,1,10-.26,8.6,8.6,0,0,1,3.52,3.06,8,8,0,0,1,1.3,4.44A8.3,8.3,0,0,1,227.19,13a8.79,8.79,0,0,1-3.36,3.15A10.38,10.38,0,0,1,219,17.37,10.5,10.5,0,0,1,214.12,16.4Zm7.57-3.08a5.07,5.07,0,0,0,1.92-2,5.39,5.39,0,0,0,.67-2.79,5.48,5.48,0,0,0-.76-2.78,5.06,5.06,0,0,0-2-1.87,6.15,6.15,0,0,0-5.68.15,5,5,0,0,0-1.92,2,5.39,5.39,0,0,0-.62,2.81,5.42,5.42,0,0,0,.82,2.76,5,5,0,0,0,2,1.84,6.13,6.13,0,0,0,5.57-.14Z"/><path class="cls-1" d="M242.49,17q-1.62-2.37-3.27-4.73H239l-3.51,0,0,4.68h-4q0-8.4,0-16.8,3.87,0,7.74.05A10.31,10.31,0,0,1,243.3,1a6,6,0,0,1,2.63,2.18,5.62,5.62,0,0,1,.85,3.26,5.56,5.56,0,0,1-1,3.2,5.89,5.89,0,0,1-2.71,2c1.27,1.83,2.52,3.67,3.76,5.5Zm-.77-12.89a4.51,4.51,0,0,0-2.8-.8c-1.12,0-2.23,0-3.35,0,0,2,0,3.9,0,5.85l3.31,0a4.45,4.45,0,0,0,2.8-.73,2.64,2.64,0,0,0,1-2.14A2.61,2.61,0,0,0,241.72,4.13Z"/><path class="cls-1" d="M250.22.43l4.13.16q-.28,6.81-.58,13.62c2.9.13,5.81.28,8.71.45-.06,1.06-.12,2.11-.19,3.17q-6.33-.39-12.66-.61Q249.93,8.84,250.22.43Z"/><path class="cls-1" d="M265.62,1.2c2.7.18,5.4.37,8.1.59a11.64,11.64,0,0,1,5,1.48,8,8,0,0,1,3.17,3.24,8,8,0,0,1,.79,4.52,8.15,8.15,0,0,1-1.64,4.28,8.23,8.23,0,0,1-3.64,2.61,11.7,11.7,0,0,1-5.06.61c-2.61-.21-5.23-.4-7.84-.56Zm6.82,14.14a6.11,6.11,0,0,0,4.27-1.05,4.86,4.86,0,0,0,1.9-3.65,4.79,4.79,0,0,0-1.23-3.93A6.07,6.07,0,0,0,273.27,5l-3.75-.28q-.37,5.19-.76,10.39C270,15.14,271.21,15.24,272.44,15.34Z"/><path class="cls-1" d="M295.45,20.08a8.77,8.77,0,0,1-3-3.5,8.31,8.31,0,0,1-.71-4.57,8,8,0,0,1,1.77-4.27,8.5,8.5,0,0,1,3.84-2.66,10.67,10.67,0,0,1,5.13-.46,10.83,10.83,0,0,1,4.81,1.81,8.72,8.72,0,0,1,3,3.6,8.11,8.11,0,0,1,.57,4.59,8.29,8.29,0,0,1-1.92,4.21,8.86,8.86,0,0,1-3.84,2.56,11.27,11.27,0,0,1-9.64-1.31Zm8-1.82a5.14,5.14,0,0,0,2.21-1.61A5.41,5.41,0,0,0,306.76,14a5.47,5.47,0,0,0-.3-2.86A5,5,0,0,0,304.76,9,5.88,5.88,0,0,0,302,7.9a5.67,5.67,0,0,0-2.91.3,5,5,0,0,0-2.22,1.64,5.33,5.33,0,0,0-1.06,2.67,5.42,5.42,0,0,0,.36,2.85,5.09,5.09,0,0,0,1.7,2.14,6.12,6.12,0,0,0,5.54.76Z"/><path class="cls-1" d="M318.79,10.56c-.24,1.46-.49,2.92-.74,4.38q4,.69,8.05,1.44l-.57,3.07c-2.67-.5-5.33-1-8-1.43q-.52,3-1,6l-4-.66q1.33-8.3,2.69-16.58,6.67,1.08,13.34,2.34c-.19,1-.38,2-.58,3.07Q323.4,11.35,318.79,10.56Z"/><path class="cls-1" d="M338.66,27.48a8.73,8.73,0,0,1-2.7-3.75,8.39,8.39,0,0,1-.31-4.62,8.09,8.09,0,0,1,2.14-4.1,8.55,8.55,0,0,1,4.07-2.31,11.58,11.58,0,0,1,9.81,2.22,8.65,8.65,0,0,1,2.68,3.84,8,8,0,0,1,.18,4.63,8.17,8.17,0,0,1-2.29,4,8.78,8.78,0,0,1-4.05,2.23,11.42,11.42,0,0,1-9.53-2.16Zm8.14-1.11A5.11,5.11,0,0,0,349.15,25a5.36,5.36,0,0,0,1.34-2.55,5.26,5.26,0,0,0-.05-2.87,5.07,5.07,0,0,0-1.52-2.32,5.87,5.87,0,0,0-2.63-1.3,5.8,5.8,0,0,0-2.93,0A4.94,4.94,0,0,0,341,17.4a5.7,5.7,0,0,0-1.18,5.44,5,5,0,0,0,1.51,2.29,6.24,6.24,0,0,0,5.47,1.24Z"/><path class="cls-1" d="M370.93,19.78a6,6,0,0,1,2,2.76,5.49,5.49,0,0,1,0,3.38,5.69,5.69,0,0,1-1.78,2.85,6,6,0,0,1-3.14,1.31,10.51,10.51,0,0,1-4.11-.37l-3.42-.9c-.4,1.49-.79,3-1.18,4.48l-3.9-1q2.06-8.14,4.12-16.28c2.52.63,5,1.29,7.54,2A10.48,10.48,0,0,1,370.93,19.78Zm-3.46,6.82a2.53,2.53,0,0,0,1.5-1.81,2.55,2.55,0,0,0-.35-2.35A4.55,4.55,0,0,0,366.08,21l-3.27-.86-1.47,5.64,3.22.86A4.48,4.48,0,0,0,367.47,26.6Z"/><path class="cls-1" d="M379.72,24.83c-1.83-.55-3.67-1.08-5.5-1.61l.87-3q7.55,2.16,15.06,4.55c-.32,1-.65,2-1,3q-2.73-.87-5.48-1.71-2,6.51-4,13-1.93-.6-3.87-1.17Z"/><path class="cls-1" d="M392.29,25.42l4,1.31L391,42.67l-3.84-1.27Q389.69,33.42,392.29,25.42Z"/><path class="cls-1" d="M398.54,44.37a8.66,8.66,0,0,1-2.24-4.06,8.21,8.21,0,0,1,.25-4.62,8.06,8.06,0,0,1,2.63-3.81,8.62,8.62,0,0,1,4.35-1.78,11.74,11.74,0,0,1,9.55,3.45,8.83,8.83,0,0,1,2.22,4.15,8,8,0,0,1-.39,4.62A8.16,8.16,0,0,1,412.13,46a9,9,0,0,1-4.32,1.69,11.49,11.49,0,0,1-9.27-3.35Zm8.28-.07a5.09,5.09,0,0,0,2.52-1.11A5.68,5.68,0,0,0,411.28,38a5,5,0,0,0-1.23-2.49,5.91,5.91,0,0,0-2.47-1.63,6.05,6.05,0,0,0-2.95-.33,5,5,0,0,0-2.53,1.13,5.3,5.3,0,0,0-1.6,2.39,5.25,5.25,0,0,0-.24,2.86,5.06,5.06,0,0,0,1.24,2.46,5.78,5.78,0,0,0,2.43,1.6A6,6,0,0,0,406.82,44.3Z"/><path class="cls-1" d="M436.32,41.93l-6.61,15.45-3.08-1.31q-2.08-6.41-4.35-12.8l-3.78,9.48-3.74-1.48q3.06-7.83,6.1-15.65l3.24,1.27q2.31,6.42,4.45,12.83l3.93-9.41Z"/><path class="cls-1" d="M435.26,59.52A10.08,10.08,0,0,1,432.94,57l2.45-2.13a10,10,0,0,0,2,2.26,11.15,11.15,0,0,0,2.68,1.73,5.27,5.27,0,0,0,2.56.62,1.46,1.46,0,0,0,1.31-.84,1.18,1.18,0,0,0,0-1.11,3.85,3.85,0,0,0-.89-1.11q-.62-.54-1.71-1.35a32.57,32.57,0,0,1-2.69-2.2,5.54,5.54,0,0,1-1.47-2.25,3.81,3.81,0,0,1,.22-2.84,4.33,4.33,0,0,1,1.84-2.08A5.64,5.64,0,0,1,442.3,45a11.27,11.27,0,0,1,4.16,1.1,14.61,14.61,0,0,1,3,1.77,10.22,10.22,0,0,1,2.19,2.23l-2.43,2.13a10.46,10.46,0,0,0-4-3.3,5.09,5.09,0,0,0-2.6-.59,1.61,1.61,0,0,0-1.33.93,1.37,1.37,0,0,0,.36,1.57,16.66,16.66,0,0,0,2.35,2A28.87,28.87,0,0,1,446.62,55a5.48,5.48,0,0,1,1.43,2.25,3.67,3.67,0,0,1-.28,2.81,4.45,4.45,0,0,1-1.89,2,5.72,5.72,0,0,1-3.1.64,11.36,11.36,0,0,1-4-1.08A15.79,15.79,0,0,1,435.26,59.52Z"/><path class="cls-1" d="M457.61,61.11q3.27,1.61,6.53,3.27l-1.37,2.67c-2.15-1.1-4.32-2.18-6.48-3.25Z"/></g></g></svg>