<svg xmlns="http://www.w3.org/2000/svg" viewBox="0 0 97.49 99.99"><defs><style>.cls-1{fill:gray;}</style></defs><g id="Layer_2" data-name="Layer 2"><g id="Layer_1-2" data-name="Layer 1"><path class="cls-1" d="M48.75,1.11,87,19.52l9.44,41.36L70,94.05H27.53L1.08,60.88l9.44-41.36L48.75,1.11m0-1.11L9.65,18.83,0,61.13,27.05,95.05H70.44L97.49,61.13l-9.65-42.3L48.75,0Z"/><path class="cls-1" d="M28.06,5.62l42.42.68L96.4,39.88,86.3,81.09,47.79,98.88l-37.93-19L1.08,38.36l27-32.74m-.46-1L0,38.1,9,80.55,47.77,100,87.16,81.8,97.49,39.65,71,5.3,27.6,4.61Z"/></g></g></svg>