<svg xmlns="http://www.w3.org/2000/svg" viewBox="0 0 240.9 80"><defs><style>.cls-1{fill:#cb0000;}.cls-2{fill:none;stroke:#fff;stroke-miterlimit:10;stroke-width:0.5px;}.cls-3{fill:#fff;}.cls-4{fill:#394853;}.cls-5{fill:#cf1a21;}</style></defs><g id="Layer_2" data-name="Layer 2"><g id="Layer_1-2" data-name="Layer 1"><polygon class="cls-1" points="0 0 0 80 26.67 63.33 53.33 80 53.33 0 0 0"/><polygon class="cls-2" points="26.67 12.01 10.63 19.93 6.67 37.74 17.77 52.01 35.57 52.01 46.67 37.74 42.7 19.93 26.67 12.01"/><polygon class="cls-2" points="36 14.48 18.11 14.34 6.57 28.46 10.06 46.2 25.96 54.21 42.29 46.45 46.76 28.77 36 14.48"/><path class="cls-3" d="M22.44,43.43a9.14,9.14,0,0,1-3.16-1.67l1.4-3.49a9.54,9.54,0,0,0,5.86,2.09,4.57,4.57,0,0,0,2.59-.59A1.81,1.81,0,0,0,30,38.22a1.57,1.57,0,0,0-.5-1.19,3.52,3.52,0,0,0-1.27-.76c-.51-.19-1.21-.4-2.09-.63a27.35,27.35,0,0,1-3.33-1.08,5.48,5.48,0,0,1-2.22-1.75,5.13,5.13,0,0,1-.92-3.2,6,6,0,0,1,.84-3.15A5.73,5.73,0,0,1,23,24.21a9.34,9.34,0,0,1,4.12-.83,12.45,12.45,0,0,1,3.33.46,9.39,9.39,0,0,1,2.84,1.31L32,28.67A9.06,9.06,0,0,0,27.1,27.1a4.2,4.2,0,0,0-2.55.63,2,2,0,0,0-.83,1.65,1.62,1.62,0,0,0,1,1.53,13,13,0,0,0,2.9,1A24.85,24.85,0,0,1,30.9,33a5.42,5.42,0,0,1,2.22,1.71,5,5,0,0,1,.93,3.17A5.91,5.91,0,0,1,33.2,41a6,6,0,0,1-2.55,2.25,9.4,9.4,0,0,1-4.14.82A13,13,0,0,1,22.44,43.43Z"/><path class="cls-4" d="M74.61,41.52a14.83,14.83,0,0,1-5-2.42l2.19-5.05a15.07,15.07,0,0,0,4.29,2.2,15.58,15.58,0,0,0,5,.82,7.71,7.71,0,0,0,4.08-.85A2.56,2.56,0,0,0,86.47,34a2.2,2.2,0,0,0-.78-1.72,5.86,5.86,0,0,0-2-1.09c-.82-.28-1.92-.58-3.31-.91a46.48,46.48,0,0,1-5.23-1.57,8.49,8.49,0,0,1-3.5-2.53,6.93,6.93,0,0,1-1.46-4.63A8.25,8.25,0,0,1,71.51,17a8.82,8.82,0,0,1,4-3.25A15.72,15.72,0,0,1,82,12.5a21,21,0,0,1,5.24.66,15.3,15.3,0,0,1,4.48,1.91l-2,5.08a15.32,15.32,0,0,0-7.77-2.27,7.07,7.07,0,0,0-4,.91,2.79,2.79,0,0,0-1.29,2.4,2.34,2.34,0,0,0,1.5,2.21,23.06,23.06,0,0,0,4.58,1.43,43.9,43.9,0,0,1,5.23,1.57,8.62,8.62,0,0,1,3.5,2.48,6.76,6.76,0,0,1,1.46,4.59A8.09,8.09,0,0,1,91.57,38a9.11,9.11,0,0,1-4,3.25A15.92,15.92,0,0,1,81,42.45,22.15,22.15,0,0,1,74.61,41.52Z"/><path class="cls-4" d="M115.78,35.75h-13L100.3,42H93.66L106.14,13h6.4l12.52,29h-6.8Zm-2-5.09L109.3,19.57l-4.44,11.09Z"/><path class="cls-4" d="M153.46,42l0-17.37-8.24,14.31h-2.92L134.06,25V42H128V13h5.36l10.48,18,10.32-18h5.32l.08,29Z"/><path class="cls-4" d="M184.76,14.28A9.61,9.61,0,0,1,189,17.92a10.24,10.24,0,0,1,1.48,5.58A10.3,10.3,0,0,1,189,29.07a9.49,9.49,0,0,1-4.22,3.64A15.32,15.32,0,0,1,178.3,34h-5.64v8h-6.48V13H178.3A15.16,15.16,0,0,1,184.76,14.28Zm-2.38,12.93a4.61,4.61,0,0,0,1.52-3.71,4.64,4.64,0,0,0-1.52-3.74,6.63,6.63,0,0,0-4.44-1.3h-5.28V28.51h5.28A6.63,6.63,0,0,0,182.38,27.21Z"/><path class="cls-4" d="M195.06,13h6.48V36.49h14V42H195.06Z"/><path class="cls-4" d="M240.9,36.58V42H219.22V13h21.16v5.37H225.66v6.29h13v5.22h-13v6.7Z"/><path class="cls-5" d="M84.46,66.41V50.77a.91.91,0,1,1,1.82,0V66.41a.91.91,0,1,1-1.82,0Z"/><path class="cls-5" d="M89.64,66.41V53.75c0-2.51,1.22-4.07,3.55-4.07s3.56,1.56,3.56,4.07V66.41a.92.92,0,1,1-1.83,0V54.07c0-1.86-.6-2.61-1.73-2.61s-1.72.75-1.72,2.61V66.41a.92.92,0,1,1-1.83,0Z"/><path class="cls-5" d="M99.26,63.28A6.45,6.45,0,0,1,99.67,61a1,1,0,0,1,1.27-.62.92.92,0,0,1,.44,1.26,4.69,4.69,0,0,0-.29,1.59c0,1.51.72,2.53,1.94,2.53s2-.87,2-3.37a4.21,4.21,0,0,0-2.09-4.1l-.91-.62a4.46,4.46,0,0,1-2.31-4.15,3.41,3.41,0,0,1,3.46-3.74c2.14,0,3.38,1.24,3.38,3.74v.2a.86.86,0,0,1-.88.92.89.89,0,0,1-.89-1v-.15c0-1.53-.65-2-1.56-2s-1.68.82-1.68,2a2.58,2.58,0,0,0,1.34,2.44l.91.62a5.77,5.77,0,0,1,3.08,5.68c0,3.9-1.61,5.26-3.84,5.26S99.26,65.91,99.26,63.28Z"/><path class="cls-5" d="M109.34,63.43V50.77a.92.92,0,1,1,1.83,0V63.11c0,1.86.62,2.6,1.77,2.6s1.78-.74,1.78-2.6V50.77a.92.92,0,1,1,1.83,0V63.43c0,2.51-1.25,4.07-3.61,4.07S109.34,65.94,109.34,63.43Z"/><path class="cls-5" d="M125.23,59.48a3.33,3.33,0,0,1,1.37,2.88v4a.91.91,0,1,1-1.82,0V62.88c0-1.41-.72-2.5-1.9-2.5h-1.27v6a.92.92,0,1,1-1.83,0v-15c0-1,.44-1.49,1.47-1.49h1.61c2.4,0,3.79,1.64,3.79,4.65v1.16A4.44,4.44,0,0,1,125.23,59.48Zm-.36-4.14V55c0-2.23-.65-3.3-2.18-3.3h-1.08v7h1.08C124.22,58.64,124.87,57.57,124.87,55.34Z"/><path class="cls-5" d="M136.8,53.75V66.41a.91.91,0,1,1-1.82,0V61.05h-3.56v5.36a.91.91,0,1,1-1.82,0V53.75c0-2.51,1.25-4.07,3.6-4.07S136.8,51.24,136.8,53.75ZM135,59.31V54.07c0-1.86-.63-2.61-1.78-2.61s-1.78.75-1.78,2.61v5.24Z"/><path class="cls-5" d="M139.92,66.41V53.75c0-2.51,1.22-4.07,3.55-4.07S147,51.24,147,53.75V66.41a.91.91,0,1,1-1.82,0V54.07c0-1.86-.6-2.61-1.73-2.61s-1.73.75-1.73,2.61V66.41a.91.91,0,1,1-1.82,0Z"/><path class="cls-5" d="M150.1,63.43V53.9c0-2.51,1.24-4.07,3.48-4.07S157,51.39,157,53.9v.44a.89.89,0,1,1-1.77-.05v-.07c0-1.86-.56-2.61-1.66-2.61s-1.68.75-1.68,2.61v8.89c0,1.83.6,2.6,1.7,2.6s1.64-.74,1.64-2.53v-.1a.89.89,0,1,1,1.77,0v.35c0,2.51-1.17,4.07-3.45,4.07S150.1,65.94,150.1,63.43Z"/><path class="cls-5" d="M165.91,66.43a.87.87,0,0,1-.89.87h-3.69c-1,0-1.47-.45-1.47-1.49V51.41c0-1,.44-1.49,1.47-1.49H165a.87.87,0,1,1,0,1.74h-3.33v5.22h3a.87.87,0,1,1,0,1.73h-3v7H165A.88.88,0,0,1,165.91,66.43Z"/><path class="cls-5" d="M179.26,53.75V66.41a.92.92,0,1,1-1.83,0V61.05h-3.55v5.36a.91.91,0,1,1-1.82,0V53.75c0-2.51,1.24-4.07,3.6-4.07S179.26,51.24,179.26,53.75Zm-1.83,5.56V54.07c0-1.86-.62-2.61-1.77-2.61s-1.78.75-1.78,2.61v5.24Z"/><path class="cls-5" d="M182.33,63.63V53.9c0-2.51,1.29-4.07,3.65-4.07s3.45,1.41,3.45,3.82V54a.89.89,0,1,1-1.77,0c0-1.52-.41-2.34-1.68-2.34s-1.83.85-1.83,2.61V63.3c0,1.72.55,2.41,1.78,2.41s1.82-.79,1.82-2.6v-3.7H186.5a.92.92,0,0,1,0-1.84h1.9a1,1,0,0,1,1,1.09v4.77c0,2.51-1.22,4.07-3.5,4.07S182.33,66.13,182.33,63.63Z"/><path class="cls-5" d="M198.6,66.43a.87.87,0,0,1-.89.87H194c-1,0-1.46-.45-1.46-1.49V51.41c0-1,.43-1.49,1.46-1.49h3.7a.87.87,0,1,1,0,1.74h-3.33v5.22h3a.87.87,0,1,1,0,1.73h-3v7h3.33A.88.88,0,0,1,198.6,66.43Z"/><path class="cls-5" d="M201.24,66.41V53.75c0-2.51,1.22-4.07,3.55-4.07s3.55,1.56,3.55,4.07V66.41a.91.91,0,1,1-1.82,0V54.07c0-1.86-.6-2.61-1.73-2.61s-1.73.75-1.73,2.61V66.41a.91.91,0,1,1-1.82,0Z"/><path class="cls-5" d="M211.41,63.43V53.9c0-2.51,1.25-4.07,3.49-4.07s3.45,1.56,3.45,4.07v.44a.87.87,0,0,1-.89.92.89.89,0,0,1-.89-1v-.07c0-1.86-.55-2.61-1.65-2.61s-1.68.75-1.68,2.61v8.89c0,1.83.6,2.6,1.7,2.6s1.63-.74,1.63-2.53v-.1a.9.9,0,1,1,1.78,0v.35c0,2.51-1.18,4.07-3.45,4.07S211.41,65.94,211.41,63.43Z"/><path class="cls-5" d="M228.07,50.77v7c0,2.16-.94,3.63-2.69,4v4.64a.91.91,0,1,1-1.82,0V61.77c-1.75-.35-2.69-1.82-2.69-4v-7a.91.91,0,1,1,1.82,0v6.7c0,1.86.63,2.61,1.78,2.61s1.78-.75,1.78-2.61v-6.7a.91.91,0,1,1,1.82,0Z"/></g></g></svg>