<svg xmlns="http://www.w3.org/2000/svg" viewBox="0 0 50 32.68"><defs><style>.cls-1{fill:#dc143c;}</style></defs><g id="Layer_2" data-name="Layer 2"><g id="Layer_1-2" data-name="Layer 1"><path class="cls-1" d="M47.11,10.22,47,10.1,45.25,8.41c1.46-.33,3-1.54,3-2.79,0-1.45-2-2-3.74-2s-2,1.23-2,2.11L38,1.4C37.07.49,34,.06,34,.06H16.43A4.88,4.88,0,0,0,12.48,1.4L8,5.76c0-.88-.23-2.11-2-2.11s-3.74.52-3.74,2c0,1.25,1.57,2.46,3,2.79L3.46,10.1l-.1.12A11.39,11.39,0,0,0,0,16.94v6.4a6.7,6.7,0,0,0,2,4v2.48c-.18,1.46,2.53,2.85,2.53,2.85h2.9a2.61,2.61,0,0,0,2.72-2.47v-.59H39.75v.59a2.61,2.61,0,0,0,2.73,2.47h3.41s2.71-1.39,2-2.85V27.35a3.79,3.79,0,0,0,2-4v-6.4A8.53,8.53,0,0,0,47.11,10.22ZM13.36,3.1a4.82,4.82,0,0,1,2.46-1H34.64a4.82,4.82,0,0,1,2.46,1l6.34,6.14H7ZM2.29,16a2.8,2.8,0,0,1,2.76-2.85c1.52,0,6.49,2.91,6.49,4.49s-5,1.21-6.49,1.21A2.8,2.8,0,0,1,2.29,16Zm8.27,10.59H6.39a6.29,6.29,0,0,1-1.91-.92A2.8,2.8,0,0,1,4,25.12a2,2,0,0,1-.29-.53,2.39,2.39,0,0,1,.41-2.1H9.41L13,25.54l-2.39,1Zm22.77,0H17.13a3.06,3.06,0,0,1-3.06-3H36.39A3.06,3.06,0,0,1,33.33,26.56Zm.78-5.09H16.35c-1.85,0-3.35-2.29-3.35-5.1H37.46C37.46,19.19,36,21.47,34.11,21.47Zm12.67,3a2.15,2.15,0,0,1-.29.53,2.83,2.83,0,0,1-.52.52c-.43.34-1.9.06-1.9.06l-3.11,1H37.5l3.56-4.07h5.31A2,2,0,0,1,46.78,24.43Zm-1.37-5.61c-1.52,0-6.49.36-6.49-1.21s5-4.49,6.49-4.49a2.85,2.85,0,0,1,0,5.7Z"/></g></g></svg>