<svg xmlns="http://www.w3.org/2000/svg" viewBox="0 0 46.29 38.61"><defs><style>.cls-1{fill:#dc143c;}</style></defs><g id="Layer_2" data-name="Layer 2"><g id="Layer_1-2" data-name="Layer 1"><path class="cls-1" d="M30.49,8.08A2,2,0,0,1,26.94,6.8V3.89H19.26V6.78a1.95,1.95,0,1,1-3.89,0V3.86A3.86,3.86,0,0,1,19.23,0h9.61a2,2,0,0,1,2,2V7.32A1,1,0,0,1,30.49,8.08Z"/><path class="cls-1" d="M24.52,25.84a4.12,4.12,0,0,1-1.37.23,4.33,4.33,0,0,1-1.49-.27L0,18.59V33.3a5.3,5.3,0,0,0,5.3,5.31H41a5.3,5.3,0,0,0,5.3-5.31V18.59Z"/><path class="cls-1" d="M46.29,11.09v4.42L23.61,23.07a1.24,1.24,0,0,1-.46.08,1.29,1.29,0,0,1-.47-.08L0,15.51V11.09a5.3,5.3,0,0,1,5.3-5.3H41A5.3,5.3,0,0,1,46.29,11.09Z"/></g></g></svg>