<svg xmlns="http://www.w3.org/2000/svg" viewBox="0 0 50 50"><defs><style>.cls-1{fill:#dc143c;}</style></defs><g id="Layer_2" data-name="Layer 2"><g id="Layer_1-2" data-name="Layer 1"><path class="cls-1" d="M0,5.73v18.2H23.93V0H5.73A5.74,5.74,0,0,0,0,5.73Zm15,8.33H13v2a1.59,1.59,0,0,1-1.39,1.6,1.57,1.57,0,0,1-1.74-1.55V14.06h-2a1.58,1.58,0,0,1-1.59-1.38,1.56,1.56,0,0,1,1.55-1.74H9.86v-2a1.59,1.59,0,0,1,1.39-1.6A1.57,1.57,0,0,1,13,8.85v2.09h2.08a1.56,1.56,0,1,1,0,3.12Z"/><path class="cls-1" d="M0,26.07v18.2A5.74,5.74,0,0,0,5.73,50h18.2V26.07ZM15.69,39.52a1.57,1.57,0,0,1-1.11,2.67,1.52,1.52,0,0,1-1.1-.46L12,40.23l-1.5,1.5a1.58,1.58,0,0,1-1.1.46,1.57,1.57,0,0,1-1.11-2.67L9.77,38l-1.5-1.5a1.56,1.56,0,0,1,2.21-2.21l1.5,1.5,1.5-1.5a1.56,1.56,0,0,1,2.21,2.21L14.19,38Z"/><path class="cls-1" d="M44.27,0H26.07V23.93H50V5.73A5.74,5.74,0,0,0,44.27,0Zm-1,13.57H33.9a1.58,1.58,0,0,1-1.6-1.38,1.57,1.57,0,0,1,1.55-1.74h9.34a1.59,1.59,0,0,1,1.59,1.38A1.55,1.55,0,0,1,43.23,13.57Z"/><path class="cls-1" d="M26.07,26.07V50h18.2A5.74,5.74,0,0,0,50,44.27V26.07ZM42.71,42.68H33.37a1.59,1.59,0,0,1-1.59-1.39,1.57,1.57,0,0,1,1.55-1.74h9.34a1.59,1.59,0,0,1,1.59,1.38A1.56,1.56,0,0,1,42.71,42.68Zm0-6.25H33.37A1.59,1.59,0,0,1,31.78,35a1.57,1.57,0,0,1,1.55-1.74h9.34a1.59,1.59,0,0,1,1.59,1.38A1.56,1.56,0,0,1,42.71,36.43Z"/></g></g></svg>