<svg xmlns="http://www.w3.org/2000/svg" viewBox="0 0 42.32 45"><defs><style>.cls-1{fill:#dc143c;}</style></defs><g id="Layer_2" data-name="Layer 2"><g id="Layer_1-2" data-name="Layer 1"><path class="cls-1" d="M37,9.31v6.54a5.27,5.27,0,1,1-10.53.07V9.31H21.16v6.61a10.57,10.57,0,0,0,7.9,10.24v5.63h5.36V26.16a10.57,10.57,0,0,0,7.9-10.24V9.31Z"/><path class="cls-1" d="M25.11,2.63h2.63V0H22.48V6.59h2.63Z"/><path class="cls-1" d="M38.37,6.59H41V0H35.73V2.63h2.64Z"/><path class="cls-1" d="M30.47,35.67a6.63,6.63,0,1,1-13.26.07V14.63A6.63,6.63,0,1,0,4,14.58V30.44a9.53,9.53,0,0,1,2.72,0V14.64a4,4,0,1,1,7.9-.08V35.65a9.27,9.27,0,1,0,18.53.09V34.42H30.47Z"/><path class="cls-1" d="M5.29,33.08a5.29,5.29,0,1,0,5.29,5.29A5.29,5.29,0,0,0,5.29,33.08Zm1.29,6.61H4V37.06H6.58Z"/></g></g></svg>