<svg xmlns="http://www.w3.org/2000/svg" viewBox="0 0 50 50"><defs><style>.cls-1{fill:#dc143c;}</style></defs><g id="Layer_2" data-name="Layer 2"><g id="Layer_1-2" data-name="Layer 1"><path class="cls-1" d="M50,33.84A16.22,16.22,0,0,0,41.11,19.4,22.05,22.05,0,0,1,19.4,41.11,16.22,16.22,0,0,0,33.84,50a16,16,0,0,0,8.22-2.25l7.87,2.18-2.18-7.87A16,16,0,0,0,50,33.84Z"/><path class="cls-1" d="M38.18,19.09A19.09,19.09,0,1,0,2.65,28.8L.07,38.11l9.32-2.57A19.1,19.1,0,0,0,38.18,19.09Zm-22-4.44H13.28A5.86,5.86,0,1,1,23.09,19l-2.48,2.28v2.29H17.68V20l3.44-3.15a2.9,2.9,0,0,0,.95-2.08,2.93,2.93,0,1,0-5.86-.08Zm1.47,11.81h2.93v2.93H17.68Z"/></g></g></svg>