<svg xmlns="http://www.w3.org/2000/svg" viewBox="0 0 40 50"><defs><style>.cls-1{fill:#dc143c;}</style></defs><g id="Layer_2" data-name="Layer 2"><g id="Layer_1-2" data-name="Layer 1"><polygon class="cls-1" points="14.37 12.09 12.59 18.55 16.16 18.55 14.37 12.09"/><path class="cls-1" d="M37,0H3.05A3,3,0,0,0,0,3V29.39H40V3A3,3,0,0,0,37,0ZM20.68,24.74A3.16,3.16,0,0,1,19,25.2c-.7,0-1.12-.23-1.25-.7l-.83-3H11.81l-.83,3c-.13.47-.54.7-1.24.7a3.22,3.22,0,0,1-1.65-.46,1.29,1.29,0,0,1-.8-1.08,1.6,1.6,0,0,1,0-.27L11.88,8.67a1.57,1.57,0,0,1,.9-.93,3.64,3.64,0,0,1,1.59-.33,3.66,3.66,0,0,1,1.6.33,1.56,1.56,0,0,1,.89.93l4.57,14.72a1.6,1.6,0,0,1,.05.27A1.29,1.29,0,0,1,20.68,24.74ZM32.4,24a1,1,0,0,1-.53.83,2.49,2.49,0,0,1-1.34.34,2,2,0,0,1-1.2-.37,1.05,1.05,0,0,1-.49-.88v-.56a4.85,4.85,0,0,1-3.73,2.05,3.12,3.12,0,0,1-2.24-.86,3.28,3.28,0,0,1-.9-2.5,2.83,2.83,0,0,1,1.49-2.72,9.15,9.15,0,0,1,4.25-.8h.93V18.3A2.06,2.06,0,0,0,28.21,17a1.65,1.65,0,0,0-1.38-.56,3.69,3.69,0,0,0-1.92.45,2.88,2.88,0,0,1-.92.44,1.05,1.05,0,0,1-.92-.56,2.53,2.53,0,0,1-.34-1.29c0-.54.45-1,1.35-1.37a7.07,7.07,0,0,1,2.79-.57A5.68,5.68,0,0,1,31,14.89a4.55,4.55,0,0,1,1.37,3.38V24Z"/><path class="cls-1" d="M28.54,20.41a9.87,9.87,0,0,0-1.33.07,2.17,2.17,0,0,0-.94.34.91.91,0,0,0-.41.79.94.94,0,0,0,.81.94A1.65,1.65,0,0,0,28,21.93a2,2,0,0,0,.61-1.43v-.09Z"/><path class="cls-1" d="M0,32.32V47a3,3,0,0,0,3.05,3H37a3,3,0,0,0,3-3V32.32Zm8.48,3.52h7.64a1.5,1.5,0,0,1,1.51,1.3,1.47,1.47,0,0,1-1.47,1.63H8.52A1.51,1.51,0,0,1,7,37.47,1.48,1.48,0,0,1,8.48,35.84Zm13.64,7.52H8.52A1.5,1.5,0,0,1,7,42.06a1.47,1.47,0,0,1,1.47-1.63h13.6a1.51,1.51,0,0,1,1.52,1.3A1.48,1.48,0,0,1,22.12,43.36Zm9.32,0H27.79a1.5,1.5,0,0,1-1.51-1.3,1.47,1.47,0,0,1,1.47-1.63H31.4a1.5,1.5,0,0,1,1.51,1.3A1.47,1.47,0,0,1,31.44,43.36Z"/></g></g></svg>