<svg xmlns="http://www.w3.org/2000/svg" viewBox="0 0 56 38"><defs><style>.cls-1{fill:#fff;}</style></defs><g id="Layer_2" data-name="Layer 2"><g id="Layer_1-2" data-name="Layer 1"><polygon class="cls-1" points="49 15.2 49 7.6 45.5 7.6 45.5 15.2 38.5 15.2 38.5 19 45.5 19 45.5 26.6 49 26.6 49 19 56 19 56 15.2 49 15.2"/><path class="cls-1" d="M17.5,15.2v7.6h9.9a10.59,10.59,0,0,1-10.16,7.6c-5.51-.15-10-5-10.23-10.94C6.77,13,11.57,7.6,17.5,7.6a9.91,9.91,0,0,1,6.8,2.75l4.6-5.73A16.57,16.57,0,0,0,17.5,0C7.81,0-.07,8.6,0,19.15.07,29.48,7.84,37.92,17.36,38,27.08,38.08,35,29.53,35,19V15.2Z"/></g></g></svg>