<svg xmlns="http://www.w3.org/2000/svg" viewBox="0 0 55 50"><defs><style>.cls-1{fill:#dc143c;}</style></defs><g id="Layer_2" data-name="Layer 2"><g id="Layer_1-2" data-name="Layer 1"><path class="cls-1" d="M43.35,4.46H15a1.7,1.7,0,0,1-1.59-1.79V1.82A1.73,1.73,0,0,0,11.8,0H3.24A3.46,3.46,0,0,0,0,3.64v30.8L4.16,11.56a1.66,1.66,0,0,1,1.56-1.44H46.59v-2A3.46,3.46,0,0,0,43.35,4.46Z"/><path class="cls-1" d="M51.75,13.61H7L.72,47.83A1.77,1.77,0,0,0,2.3,50H48.88a3.41,3.41,0,0,0,3.23-3.24L55,17.66A3.52,3.52,0,0,0,51.75,13.61Z"/></g></g></svg>