<svg xmlns="http://www.w3.org/2000/svg" viewBox="0 0 50 50"><defs><style>.cls-1{fill:#dc143c;}</style></defs><g id="Layer_2" data-name="Layer 2"><g id="Layer_1-2" data-name="Layer 1"><path class="cls-1" d="M25,0A25,25,0,1,0,50,25,25,25,0,0,0,25,0ZM37.56,20.55l-6.11,6.11a3.52,3.52,0,0,1-5,0l-.24-.24-.65.65.24.24a3.51,3.51,0,0,1,0,5L19.72,38.4a3.52,3.52,0,0,1-2.49,1,3.46,3.46,0,0,1-2.48-1l-2.31-2.31a3.51,3.51,0,0,1,0-5L18.55,25a3.54,3.54,0,0,1,5,0l.24.24.65-.65-.24-.24a3.51,3.51,0,0,1,0-5l6.11-6.12a3.52,3.52,0,0,1,2.49-1,3.48,3.48,0,0,1,2.48,1l2.31,2.32A3.51,3.51,0,0,1,37.56,20.55Z"/><path class="cls-1" d="M23.76,28.91l-1.19,1.18-1.83-1.83,1.18-1.18-.24-.24a.91.91,0,0,0-1.29,0L14.27,33a.94.94,0,0,0,0,1.3l2.31,2.31a.94.94,0,0,0,1.3,0L24,30.45a.94.94,0,0,0,0-1.3Z"/><path class="cls-1" d="M33.42,15.11a.91.91,0,0,0-.65-.27.88.88,0,0,0-.65.27L26,21.22a.94.94,0,0,0,0,1.3l.24.24,1.82-1.82,1.83,1.84-1.81,1.81.23.24a.94.94,0,0,0,1.3,0l6.12-6.11a.94.94,0,0,0,0-1.3Z"/></g></g></svg>