<?xml version="1.0" encoding="iso-8859-1"?>
<!-- Generator: Adobe Illustrator 16.0.0, SVG Export Plug-In . SVG Version: 6.00 Build 0)  -->
<!DOCTYPE svg PUBLIC "-//W3C//DTD SVG 1.1//EN" "http://www.w3.org/Graphics/SVG/1.1/DTD/svg11.dtd">
<svg version="1.1" id="Capa_1" xmlns="http://www.w3.org/2000/svg" xmlns:xlink="http://www.w3.org/1999/xlink" x="0px" y="0px"
	 width="541.07px" height="541.071px" viewBox="0 0 541.07 541.071" style="enable-background:new 0 0 541.07 541.071;"
	 xml:space="preserve">
<g>
	<g>
		<path d="M1.792,277.575l142.611,162.657c2.39,4.779,8.66,8.653,14.002,8.653H290.32c5.343,0,7.738-3.874,5.349-8.653
			L153.058,277.575c-2.39-4.78-2.39-12.531,0-17.311l142.611-159.432c2.39-4.78-0.006-8.654-5.349-8.654H158.406
			c-10.019,0-16.181,10.891-21.934,17.531C128.859,118.498,23.148,236.387,1.79,260.264C-0.597,265.047-0.597,272.794,1.792,277.575
			z"/>
		<path d="M540.145,100.835c2.39-4.78-0.006-8.654-5.349-8.654c0,0-131.914,0-131.917,0c-12.213,0.003-28.259,24.593-36.228,33.504
			c-14.021,15.673-119.618,133.052-120.383,134.585c-2.39,4.78-2.39,12.531,0,17.311l142.611,162.657
			c2.391,4.78,8.66,8.654,14.003,8.654h131.914c5.343,0,7.738-3.874,5.349-8.654L397.533,277.581c-2.39-4.779-2.39-12.531,0-17.311
			L540.145,100.835z"/>
	</g>
</g>
<g>
</g>
<g>
</g>
<g>
</g>
<g>
</g>
<g>
</g>
<g>
</g>
<g>
</g>
<g>
</g>
<g>
</g>
<g>
</g>
<g>
</g>
<g>
</g>
<g>
</g>
<g>
</g>
<g>
</g>
</svg>
