<svg xmlns="http://www.w3.org/2000/svg" viewBox="0 0 37.33 37.87"><defs><style>.cls-1{fill:#fff;}</style></defs><g id="Layer_2" data-name="Layer 2"><g id="Layer_1-2" data-name="Layer 1"><path class="cls-1" d="M37.33,37.8v.07h0V24c0-6.79-1.44-12-9.28-12a8.12,8.12,0,0,0-7.32,4.08h-.11V12.59H13.18V37.87h7.73V25.36c0-3.3.62-6.48,4.65-6.48s4,3.76,4,6.69V37.8Z"/><path class="cls-1" d="M.63,12.59H8.37V37.87H.63Z"/><path class="cls-1" d="M4.49,0A4.52,4.52,0,0,0,0,4.55,4.55,4.55,0,0,0,4.49,9.13,4.55,4.55,0,0,0,9,4.55,4.52,4.52,0,0,0,4.49,0Z"/></g></g></svg>