<svg xmlns="http://www.w3.org/2000/svg" viewBox="0 0 50 50"><defs><style>.cls-1{fill:#dc143c;}</style></defs><g id="Layer_2" data-name="Layer 2"><g id="Layer_1-2" data-name="Layer 1"><path class="cls-1" d="M44.64,0H5.36A5.36,5.36,0,0,0,0,5.36V33.92a5.37,5.37,0,0,0,5.36,5.37H11.7l-1,8.73a1.78,1.78,0,0,0,1.57,2,1.76,1.76,0,0,0,1.39-.45l11.4-10.25H44.64A5.37,5.37,0,0,0,50,33.92V5.36A5.36,5.36,0,0,0,44.64,0ZM38,27.42H12a3,3,0,0,1,0-6H38a3,3,0,0,1,0,6Zm0-11H12a3,3,0,1,1,0-6H38a3,3,0,0,1,0,6Z"/></g></g></svg>