<svg xmlns="http://www.w3.org/2000/svg" viewBox="0 0 60 50"><defs><style>.cls-1{fill:#dc143c;}</style></defs><g id="Layer_2" data-name="Layer 2"><g id="Layer_1-2" data-name="Layer 1"><path class="cls-1" d="M46.93,50H13.07a2,2,0,0,1-1.94-2.12V41.62a7.64,7.64,0,0,1,4.11-6.92c7.24-3.54,6.85-3.42,7.41-3.42H25a2,2,0,0,1,1.88,1.6,3.21,3.21,0,0,0,6.34,0,2,2,0,0,1,1.88-1.61c2.47,0,2.6-.05,3.09.19l6.62,3.23a7.64,7.64,0,0,1,4.11,6.92v6.26A2,2,0,0,1,46.93,50ZM30.05,0C23.53,0,18.22,5.8,18.22,12.93s5.31,12.94,11.83,12.94,11.82-5.8,11.82-12.94S36.57,0,30.05,0ZM11.4,13.83C7.29,13.83,4,17.49,4,22s3.34,8.14,7.45,8.14,7.44-3.65,7.44-8.14S15.5,13.83,11.4,13.83Zm37.2,0c-4.1,0-7.44,3.66-7.44,8.15s3.34,8.14,7.44,8.14,7.45-3.65,7.45-8.14S52.71,13.83,48.6,13.83Zm8.61,19.44c-4-2-3.94-2-4.49-2-2.88,0-4.77,0-6,0a1.35,1.35,0,0,0-.57,2.5,7.08,7.08,0,0,1,2.15,1.76,9.76,9.76,0,0,1,2.11,6.76,1.27,1.27,0,0,0,1.21,1.32h6.48A2,2,0,0,0,60,41.47V38a5.22,5.22,0,0,0-2.79-4.71Zm-49.93-2c-.55,0-.44,0-4.49,2A5.22,5.22,0,0,0,0,38v3.49a2,2,0,0,0,1.94,2.12H8.42a1.27,1.27,0,0,0,1.21-1.32,9.71,9.71,0,0,1,2.11-6.76,7.09,7.09,0,0,1,2.13-1.75,1.35,1.35,0,0,0-.56-2.5l-6,0Z"/></g></g></svg>