<svg xmlns="http://www.w3.org/2000/svg" viewBox="0 0 40 50"><defs><style>.cls-1{fill:#dc143c;}</style></defs><g id="Layer_2" data-name="Layer 2"><g id="Layer_1-2" data-name="Layer 1"><path class="cls-1" d="M30.71,4.39v7.33H9.18V4.39H0V50H40V4.39ZM6.12,17.68H16.84v2.93H6.12Zm0,7.32H16.84v2.93H6.12Zm0,7.32H16.84v2.93H6.12ZM33.78,42.68H6.12V39.75H33.78Zm-4.6-16.4v4.77l2.22-1.41,1.69,2.44-5.44,3.47-5.44-3.47,1.7-2.44,2.21,1.41V26.28a5.9,5.9,0,0,1-4.58-6,6.14,6.14,0,0,1,12.24.28A5.93,5.93,0,0,1,29.18,26.28Z"/><path class="cls-1" d="M12.24,0H27.65V8.79H12.24Z"/><ellipse class="cls-1" cx="27.66" cy="20.59" rx="3.07" ry="2.94"/></g></g></svg>