<svg xmlns="http://www.w3.org/2000/svg" viewBox="0 0 45 37.44"><defs><style>.cls-1{fill:#fff;}</style></defs><g id="Layer_2" data-name="Layer 2"><g id="Layer_1-2" data-name="Layer 1"><path class="cls-1" d="M45,4.43a18.86,18.86,0,0,1-5.32,1.49A9.28,9.28,0,0,0,43.74.7,18.13,18.13,0,0,1,37.89,3a9.12,9.12,0,0,0-6.74-3,9.34,9.34,0,0,0-9.22,9.45,10,10,0,0,0,.22,2.15,25.9,25.9,0,0,1-19-9.88A9.76,9.76,0,0,0,1.87,6.5,9.53,9.53,0,0,0,6,14.35,8.91,8.91,0,0,1,1.8,13.18v.11a9.44,9.44,0,0,0,7.39,9.28,9,9,0,0,1-2.42.31A7.72,7.72,0,0,1,5,22.72a9.33,9.33,0,0,0,8.62,6.58,18.3,18.3,0,0,1-11.44,4A17.85,17.85,0,0,1,0,33.2a25.53,25.53,0,0,0,14.15,4.24c17,0,26.26-14.4,26.26-26.88,0-.42,0-.82,0-1.22A18.63,18.63,0,0,0,45,4.43Z"/></g></g></svg>